<?xml version="1.0" encoding="UTF-8"?>
<svg width="100px" height="83px" viewBox="0 0 100 83" version="1.1" xmlns="http://www.w3.org/2000/svg" xmlns:xlink="http://www.w3.org/1999/xlink">
    <title>Shape</title>
    <desc>Created with Sketch.</desc>
    <g id="Page-1" stroke="none" stroke-width="1" fill="none" fill-rule="evenodd">
        <path d="M76.5569723,82.0934017 L53.3426828,65.164066 L40.3322724,77.3198841 C39.5888203,77.9119483 38.826782,78.2079804 38.0275711,78.2079804 C36.2246999,78.2079804 35.0165904,77.4493981 34.4218288,75.9137316 L25.22161,48.2162283 L2.39763278,41.1484619 C1.00366023,40.7599198 0.204449307,39.7608114 0,38.1696389 C0,36.5784663 0.799210927,35.486848 2.39763278,34.8762818 C64.8476029,11.6192599 96.2770373,0 96.6859359,0 C97.4108016,0 98.1728399,0.333036112 98.9348782,0.999108337 C99.6969166,1.66518056 100.050056,2.53477486 99.9942974,3.58938921 L84.084424,79.1145787 C83.5454213,81.7048596 81.9841721,83 79.38209,83 C78.3598435,83 77.4305284,82.7039679 76.5569723,82.0934017 Z M39.1427491,54.3958984 C67.6913069,28.7521177 82.0027584,15.8562193 82.0213447,15.6897013 C82.0585173,15.5231832 82.0771036,15.4121712 82.0771036,15.3381632 C82.0771036,14.746099 81.6496187,14.4500669 80.7760625,14.4500669 C80.5716132,14.4500669 63.8997016,25.0147124 30.7417412,46.1255016 L37.7301903,68.9569773 L39.1427491,54.3958984 Z" id="Shape" fill="#FFFFFF" fill-rule="nonzero"></path>
    </g>
</svg>