<?xml version="1.0" encoding="UTF-8"?>
<svg width="512px" height="512px" viewBox="0 0 512 512" version="1.1" xmlns="http://www.w3.org/2000/svg" xmlns:xlink="http://www.w3.org/1999/xlink">
    <!-- Generator: Sketch 47.1 (45422) - http://www.bohemiancoding.com/sketch -->
    <title>Safari Pinned Tab</title>
    <desc>Created with Sketch.</desc>
    <defs></defs>
    <g id="Page-3" stroke="none" stroke-width="1" fill="none" fill-rule="evenodd">
        <g id="Safari-Pinned-Tab" fill="#2C2C2C">
            <g id="Group" transform="translate(90.000000, 73.000000)">
                <path d="M245.577328,347.721778 C238.200063,347.241567 230.9124,345.981015 224.371423,344.000148 C219.503026,342.559517 209.64676,338.8679 205.345844,336.917046 C204.658892,336.616914 204.031675,336.346796 203.942073,336.346796 C203.494061,336.346796 191.845747,330.644299 188.530458,328.813497 C187.305891,328.123195 185.454108,327.132761 184.438614,326.592524 C183.42312,326.052288 182.198554,325.331972 181.750542,325.001828 C181.30253,324.701696 180.525975,324.221486 180.018228,323.981381 C176.792541,322.360671 165.681842,315.09749 157.766962,309.425006 C156.542396,308.524612 155.198359,307.594204 154.780215,307.294073 C154.033528,306.813862 144.655142,299.670734 142.534552,297.989998 C139.308865,295.468894 130.318756,288.145687 127.750153,286.014754 C126.107442,284.604136 123.777779,282.653282 122.553213,281.632835 C121.328647,280.612388 117.86402,277.641087 114.817538,275.059956 C109.501128,270.497958 109.292056,270.347893 108.933646,271.008182 C108.186959,272.448813 105.34955,277.791152 104.304188,279.77202 C103.676971,280.942532 102.691345,282.743321 102.123863,283.823794 C97.6437419,292.347527 92.8649465,300.421063 88.2653559,307.234046 C87.9965486,307.65423 86.4135726,309.785164 84.7708617,312.006136 C76.7365119,322.780855 68.0152102,330.794364 57.8602699,336.676941 C55.6202095,337.997519 54.7839203,338.29765 52.2451852,338.897913 C48.5117513,339.738281 44.3601728,339.228058 40.8358111,337.517309 C38.7450881,336.496862 35.3999313,333.795679 33.7870879,331.814811 C30.7406058,328.063168 28.7096177,322.390684 27.8135936,315.18753 C27.1266417,309.635098 26.9773044,308.494598 26.5890272,304.682929 C26.0812802,299.520668 26.0514127,279.471888 26.5890272,273.769391 C27.4253164,264.40529 28.2018707,258.252596 29.3368346,251.859796 C29.4563045,251.049441 29.7848467,249.158613 30.0536539,247.657956 C30.5315335,244.656641 30.8302082,243.276037 31.7560998,239.10421 C32.1145095,237.543526 32.4729191,235.802764 32.5326541,235.262527 C32.7118589,234.24208 33.100136,233.76187 33.5182806,234.182054 C33.667618,234.33212 33.9065577,235.262527 34.0857626,236.252961 C34.2649674,237.243395 34.5337747,238.864105 34.7129795,239.854538 C34.8921843,240.844972 35.2207265,243.426103 35.4895337,245.557036 C35.7284735,247.717982 36.0570157,250.599244 36.2362205,252.009862 C36.3855579,253.420479 36.6543651,255.701478 36.8037025,257.112096 C37.6997266,265.305684 38.6554857,271.998616 39.4619074,275.57018 C39.6112448,276.230469 39.880052,277.58106 40.0891243,278.571494 C40.4774015,280.642401 40.5670039,280.942532 42.1798474,285.744635 C42.8667992,287.845555 43.9121607,290.186581 44.7185824,291.477146 C47.7351971,296.339275 52.2153178,299.010445 56.1279565,298.260116 C59.0251013,297.689867 68.5528247,290.216594 74.3471142,283.913834 C78.5584276,279.321823 84.7111268,271.638458 87.8770787,266.98642 C90.236609,263.534909 91.5806452,261.584055 92.5961392,260.113411 C93.2233561,259.213016 94.925802,256.721925 96.3893081,254.560979 C98.7787058,251.019428 103.079622,244.956773 104.901537,242.495695 C105.289815,241.955458 105.707959,241.505261 105.797562,241.505261 C105.917032,241.505261 107.500008,242.525708 109.351791,243.756247 C114.250056,247.057693 126.645057,255.011176 126.883997,255.011176 C126.973599,255.011176 127.481346,255.311308 127.989093,255.701478 C129.034454,256.421794 131.304382,257.862425 133.872985,259.363082 C139.428335,262.634515 143.191636,264.825474 144.625275,265.605816 C145.521299,266.086026 147.134142,267.016434 148.209371,267.616697 C149.2846,268.216959 151.225986,269.327446 152.540155,270.047761 C155.347697,271.578431 168.429649,278.121297 168.668589,278.121297 C168.758192,278.121297 169.803553,278.571494 170.998252,279.141744 C173.50712,280.34227 179.420879,282.9234 181.362265,283.643715 C182.108951,283.943847 183.124445,284.334018 183.602325,284.54411 C185.035964,285.174386 190.023831,287.035201 191.965217,287.69549 C192.950843,288.025634 194.563687,288.595884 195.549313,288.956042 C196.53494,289.3162 197.938711,289.766397 198.685398,289.976489 C199.432085,290.216594 200.985193,290.666791 202.120157,291.026949 C215.948797,295.318828 229.329424,296.999564 239.006485,295.708999 C247.757654,294.508473 252.864991,292.737698 259.226763,288.715937 C266.185884,284.304005 271.024414,278.481455 274.84745,269.897695 C276.072017,267.136486 277.32645,262.394409 278.103005,257.682346 C278.789957,253.480506 278.401679,245.677088 277.266715,241.055064 C277.117378,240.394775 276.818703,239.254276 276.639499,238.503947 C275.56427,234.031988 271.741233,226.948887 268.276607,223.047178 C261.377221,215.273774 254.328497,209.481237 246.174678,204.799186 C245.039714,204.138897 238.289665,200.747412 236.617087,199.997083 C229.508629,196.755664 219.204351,193.574271 206.898953,190.783048 C206.241868,190.632982 205.375712,190.452904 204.957567,190.332851 C204.539422,190.242812 203.075916,189.972693 201.672145,189.732588 C200.268374,189.492483 198.326988,189.162338 197.341362,188.982259 C193.279386,188.231931 187.634434,187.541629 178.972867,186.821313 C173.14871,186.31109 148.92619,186.31109 142.982564,186.821313 C137.068804,187.331537 130.647298,187.991826 128.048828,188.381997 C124.106322,188.952246 117.057598,190.092746 115.355153,190.452904 C114.608466,190.602969 113.26443,190.873088 112.368405,191.053166 C111.472381,191.233245 110.18808,191.503364 109.530996,191.653429 C108.873911,191.803495 107.320803,192.13364 106.096236,192.403758 C104.87167,192.673876 103.318562,193.034034 102.661477,193.214113 C101.436911,193.544257 100.630489,193.724336 97.584007,194.504678 C95.3140791,195.074928 94.2089827,195.375059 91.6105127,196.185414 C90.4755488,196.545572 88.9224402,197.025782 88.1757535,197.235874 C85.4279461,198.046229 80.1712711,199.786991 77.7221384,200.687386 C76.3183673,201.227622 74.7951262,201.767859 74.2873792,201.947938 C73.8094997,202.098003 73.1225478,202.338109 72.7940056,202.488174 C72.4654634,202.608227 71.3902345,203.028411 70.4046079,203.418582 C69.4189814,203.778739 68.0749451,204.318976 67.4178608,204.589094 C66.7607764,204.889226 65.028463,205.609541 63.5350895,206.239817 C62.0715834,206.84008 60.1899327,207.650435 59.3536435,208.040606 C58.5472217,208.430777 56.7850409,209.241132 55.4708722,209.841395 C47.3767874,213.593037 36.773835,219.295535 31.3678227,222.807073 C30.2925937,223.527388 29.3069671,224.097638 29.1874973,224.097638 C28.9485575,224.097638 18.6442798,231.000661 15.8964724,233.011542 C11.4462192,236.252961 9.26589376,237.903684 5.20391764,241.145104 C2.66518256,243.155984 0.753664389,244.476563 0.514724617,244.386523 C0.0965800158,244.236457 0.753664389,242.765813 2.99372475,238.804078 C3.44173682,238.05375 4.00921878,237.063316 4.27802603,236.553093 C4.54683327,236.072882 5.62206224,234.212067 6.72715869,232.441292 C12.3721108,223.197244 17.8079906,216.054115 26.5292923,206.389883 C38.864558,192.703889 55.2617999,179.798237 73.0926804,169.743834 C75.2431383,168.513295 85.8759582,163.170956 88.1757535,162.150509 C102.2732,155.877762 116.729056,151.075659 128.944852,148.644594 C130.109683,148.404489 132.439346,147.924279 134.17166,147.564121 C141.280118,146.093477 152.331082,144.59282 160.604372,143.962544 C162.904167,143.812478 166.547999,143.512346 168.668589,143.362281 C173.686324,142.97211 196.624542,142.97211 200.895591,143.362281 C202.717507,143.512346 206.032796,143.782465 208.242989,143.962544 C212.00629,144.262675 214.067146,144.472767 218.995279,145.163069 C220.070508,145.313135 221.952158,145.583253 223.176725,145.733319 C225.536255,146.063464 227.178966,146.363595 231.091605,147.143937 C232.405773,147.414055 234.018617,147.7442 234.675701,147.864252 C237.453376,148.404489 240.499858,149.094791 242.590581,149.635028 C248.414738,151.165698 250.654798,151.765961 252.596184,152.366224 C253.761015,152.726382 255.164787,153.146566 255.732269,153.326645 C258.539811,154.106986 268.187004,157.558498 271.114016,158.81905 C271.621763,159.029142 273.145004,159.689431 274.548776,160.259681 C279.028896,162.120496 288.347547,166.622467 291.573234,168.483282 C292.140716,168.84344 293.75356,169.743834 295.157331,170.524176 C306.656307,177.007015 319.708392,188.41201 327.921947,199.186728 C333.08902,205.969699 337.509406,213.442972 340.257213,220.045863 C340.944165,221.696586 341.601249,223.317296 341.750586,223.647441 C342.76608,226.108518 343.960779,229.860161 345.036008,234.031988 C345.254418,234.894213 346.679495,241.408386 346.614519,247.657956 C346.549542,253.907526 346.168242,258.839874 345.939974,261.062006 C344.894613,271.086396 343.36343,273.499273 341.601249,281.272677 C341.033767,283.733755 340.794827,284.514097 339.600129,287.425371 C339.361189,287.995621 338.972912,288.956042 338.763839,289.526292 C338.017153,291.537172 333.775972,299.610708 332.043658,302.281878 C323.411959,315.787792 313.615428,325.361985 299.458247,334.155837 C296.262427,336.166717 286.973644,340.728715 285.002391,341.268952 C284.584246,341.389004 283.986897,341.599096 283.658354,341.749162 C281.209222,342.799622 278.192607,343.730029 272.60739,345.17066 C265.021052,347.181541 253.731148,348.232001 245.577328,347.721778 Z" id="Shape"></path>
                <path d="M23.214003,176.916976 C19.6000389,175.686437 17.1210388,174.215793 14.731641,171.844754 C10.6696649,167.79298 8.39973709,163.050903 7.35437559,156.417998 C6.8167611,152.966487 6.84662857,150.595448 7.38424306,146.663727 C7.80238766,143.602386 7.98159249,142.521913 8.72827928,138.710243 C9.20615882,136.249166 11.3267493,127.455315 11.8344963,125.864618 C12.0435686,125.174316 12.5811831,123.40354 13.0291952,121.902883 C14.223894,117.911135 19.2416292,102.694471 20.8246052,98.1924992 C21.571292,96.061566 22.5270511,93.3303699 22.9153282,92.1898704 C23.5724126,90.2090029 24.3190994,88.1681092 24.8567139,86.7875045 C24.9761838,86.45736 25.304726,85.5269525 25.6034007,84.6865845 C25.8722079,83.8762296 26.2007501,82.915809 26.3500875,82.5856644 C26.4695573,82.2555198 26.8578345,81.2350729 27.1863767,80.3346786 C27.5149188,79.4342843 28.1122683,77.7535482 28.5304129,76.5830356 C28.9485575,75.4425361 29.6355093,73.4616686 30.0835214,72.2311297 C31.2782203,68.8696576 31.6963649,67.9692633 32.1145095,68.119329 C32.4729191,68.2393816 32.5625215,68.7195919 33.3689433,74.1819841 C33.607883,75.832707 33.9364252,77.9936534 34.0857626,78.9840871 C35.758341,89.3086086 36.0570157,91.0193578 36.5050278,93.0902648 C36.6543651,93.7505539 36.9231724,95.1011454 37.1023772,96.0915791 C37.281582,97.0820129 37.5503893,98.3725781 37.6997266,98.9428278 C37.849064,99.5130775 38.0282688,100.593551 38.1477387,101.343879 C38.2672086,102.094208 38.5957508,103.654891 38.8944255,104.795391 C39.1632327,105.965903 39.6411123,107.976784 39.939787,109.297362 C40.4176665,111.458309 40.8656786,113.319124 41.5824979,115.900254 C41.7318353,116.410478 42.03051,117.611003 42.2993172,118.601437 C42.9862691,121.122541 43.6433535,123.433553 44.2705704,125.354394 C44.5692451,126.254789 44.9575222,127.485328 45.1068596,128.055577 C45.2860644,128.625827 45.8236789,130.246537 46.3612934,131.657155 C46.8690404,133.067772 47.6157272,135.078653 47.9741368,136.159126 C49.0792333,139.340519 52.6035949,147.414055 54.7839203,151.735948 L56.8149084,155.727696 L56.1279565,156.568064 C55.7695469,157.018261 54.6644504,158.368853 53.7086914,159.569378 C44.9276547,170.46415 39.0437628,175.1462 32.024907,176.856949 C30.1133889,177.307147 24.5281717,177.367173 23.214003,176.916976 Z" id="Shape"></path>
                <path d="M253.492208,139.910769 C249.699039,139.460572 247.996593,139.070401 244.083955,137.749823 C238.857147,135.949034 232.674581,133.007746 227.985388,130.036445 C227.328303,129.616261 226.701086,129.256103 226.641351,129.256103 C226.551749,129.256103 225.327183,128.505775 223.893544,127.575367 C221.713219,126.164749 221.354809,125.804592 221.474279,125.264355 C221.563881,124.904197 221.713219,122.92333 221.802821,120.852423 C221.922291,118.781516 222.131363,114.729742 222.2807,111.84848 C223.684472,87.2377017 223.057255,72.081064 219.92117,55.8739663 C219.592628,54.2232434 219.114748,51.7321525 218.845941,50.3215347 C218.577134,48.9109169 218.099254,46.629918 217.770712,45.2193002 C217.44217,43.8086825 217.053893,42.0679201 216.874688,41.3175915 C216.725351,40.5672629 216.247471,38.496356 215.829327,36.6655542 C214.933302,32.7638455 214.425555,30.4228203 213.917808,27.9617425 C213.708736,26.9713088 213.439929,25.770783 213.320459,25.2605596 C213.171122,24.7803493 212.72311,22.4093109 212.275098,20.0082594 C211.856953,17.6072079 211.379073,14.9960643 211.229736,14.1556963 C209.945435,7.1026075 209.318218,0.649781561 209.915567,0.649781561 C210.12464,0.649781561 212.304965,3.35096451 214.783965,6.65241034 C217.233098,9.95385617 219.92117,13.4954071 220.697724,14.4858409 C225.506387,20.6685485 229.389159,25.560691 234.914641,32.3136484 C238.3494,36.5154885 241.814027,40.7773549 242.590581,41.7677887 C243.397003,42.7582224 245.099449,44.8591425 246.38375,46.4498391 C253.850618,55.7239006 260.331859,64.3976992 262.661522,68.1793553 C264.543173,71.3007223 268.485679,77.9636402 269.202498,79.2842186 C269.471305,79.794442 270.038787,80.7848758 270.486799,81.5352044 C271.502293,83.2759667 276.938173,94.2607774 276.938173,94.5609088 C276.938173,94.6809614 277.117378,95.221198 277.356318,95.7314214 C278.401679,98.1324729 280.014523,102.994602 280.52227,105.245588 C280.64174,105.815838 281.000149,107.376521 281.298824,108.6971 C281.668937,110.339738 282.358315,114.101646 282.411996,117.654104 C282.462283,120.981899 281.904501,124.119075 281.448162,125.354394 C280.504675,127.908432 277.893932,131.236971 276.012282,133.037759 C271.920438,136.909455 267.948064,138.950349 262.57192,139.910769 C259.644907,140.420993 257.613919,140.420993 253.492208,139.910769 Z" id="Shape"></path>
            </g>
        </g>
    </g>
</svg>