<?xml version="1.0" encoding="UTF-8"?>
<svg width="100px" height="100px" viewBox="0 0 100 100" version="1.1" xmlns="http://www.w3.org/2000/svg" xmlns:xlink="http://www.w3.org/1999/xlink">
    <!-- Generator: Sketch 41.1 (35376) - http://www.bohemiancoding.com/sketch -->
    <title>icon_linkedin</title>
    <desc>Created with Sketch.</desc>
    <defs></defs>
    <g id="Page-1" stroke="none" stroke-width="1" fill="none" fill-rule="evenodd">
        <g id="icon_linkedin" fill="#FFFFFF">
            <path d="M85,85 L70,85 L70,58.5 C70,54.3578644 66.6421356,51 62.5,51 C58.3578644,51 55,54.3578644 55,58.5 L55,85 L40,85 L40,40 L55,40 L55,46 C57.5,41.8 62.95,39 67.5,39 C77.1649831,39 85,46.8350169 85,56.5 L85,85 Z M22.5,31.55 C17.5,31.55 13.45,27.5 13.45,22.5 C13.45,17.501823 17.501823,13.45 22.5,13.45 C27.5,13.45 31.55,17.5 31.55,22.5 C31.55,27.498177 27.498177,31.55 22.5,31.55 L22.5,31.55 Z M30,85 L15,85 L15,40 L30,40 L30,85 Z M90,0 L10,0 C4.45,0 0,4.45 0,10 L0,90 C0,95.5228475 4.4771525,100 10,100 L90,100 C95.5228475,100 100,95.5228475 100,90 L100,10 C100,4.45 95.5,0 90,0 Z" id="Shape"></path>
        </g>
    </g>
</svg>