<svg width="77px" height="77px" viewBox="0 0 77 77" version="1.1" xmlns="http://www.w3.org/2000/svg" xmlns:xlink="http://www.w3.org/1999/xlink">
    <title>Facebook+</title>
    <defs></defs>
    <g id="Page-1" stroke="none" stroke-width="1" fill="none" fill-rule="evenodd">
        <g id="facebook">
            <path d="M38.53,0.13 C17.56,0.13 0.56,17.13 0.56,38.1 C0.56,59.06 17.56,76.06 38.53,76.06 C59.49,76.06 76.49,59.06 76.49,38.1 C76.49,17.13 59.49,0.13 38.53,0.13 L38.53,0.13 Z" id="Path" fill="#43619C"></path>
            <path d="M57,54.15 C57,55.27 56.45,56 55.34,56 L46,56 L46,42 L50.75,42 L51.47,36 L46,36 L46,32.88 C46,31.28 46.43,30 48.73,30 L52,30 L52,25.23 C51,25.16 49.45,25.01 47.42,25.01 C43.2,25.01 40,27.59 40,32.33 L40,36 L35,36 L35,42 L40,42 L40,56 L22.68,56 C21.56,56 21,55.27 21,54.15 L21,21.49 C21,20.37 21.56,19 22.68,19 L55.34,19 C56.45,19 57,20.37 57,21.49 L57,54.15 L57,54.15 Z" id="Path" fill="#FFFFFF"></path>
        </g>
    </g>
</svg>