<?xml version="1.0" encoding="UTF-8"?>
<svg width="77px" height="77px" viewBox="0 0 77 77" version="1.1" xmlns="http://www.w3.org/2000/svg" xmlns:xlink="http://www.w3.org/1999/xlink">
    <title>Gmail</title>
    <g id="Page-1" stroke="none" stroke-width="1" fill="none" fill-rule="evenodd">
        <g id="Group">
            <g id="email2">
                <path d="M0,38.5 C2.67147415e-15,59.7629629 17.2370371,77 38.5,77 C59.7629629,77 77,59.7629629 77,38.5 C77,17.2370371 59.7629629,1.06858966e-15 38.5,0 C17.2370371,-1.33573708e-15 2.67147415e-15,17.2370371 0,38.5 Z" id="Path" fill="#F3E9E9"></path>
                <g id="Mail" transform="translate(20.453125, 25.265625)" stroke="#FFFFFF" stroke-width="2">
                    <rect id="Rectangle" x="0" y="0" width="36.09375" height="27.1304688" rx="1.39"></rect>
                    <path d="M35.4560938,0.92640625 L23.1601563,14.0645312 C21.822063,15.4541649 19.9760134,16.2393349 18.046875,16.2393349 C16.1177366,16.2393349 14.271687,15.4541649 12.9335937,14.0645312 L0.63765625,0.9384375" id="Path" stroke-linejoin="round"></path>
                </g>
            </g>
            <g id="iconfinder_Gmail_3721669" transform="translate(18.046875, 24.062500)">
                <rect id="Rectangle" fill="#F2F2F2" x="2.19140625" y="0.38406208" width="36.5234375" height="29.3100008"></rect>
                <path d="M5.23502604,2.91078629 C5.23502604,1.51603453 4.1007704,0.38406208 2.69867622,0.38406208 C1.29861111,0.38406208 0.162326389,1.51603453 0.162326389,2.91078629 C0.162326389,8.29169817 0.162326389,20.8626565 0.162326389,26.6619939 C0.162326389,28.3377174 1.52586806,29.6940629 3.20594618,29.6940629 C4.28541667,29.6940629 5.23502604,29.6940629 5.23502604,29.6940629 C5.23502604,29.6940629 5.23502604,10.0240203 5.23502604,2.91078629 Z" id="Path" fill="#EB4134"></path>
                <path d="M35.671224,2.91078629 C35.671224,1.51603453 36.8075087,0.38406208 38.2075738,0.38406208 C39.611697,0.38406208 40.7439236,1.51401315 40.7439236,2.90674353 C40.7439236,8.28563403 40.7439236,20.8606351 40.7439236,26.6619939 C40.7439236,28.3377174 39.382411,29.6940629 37.7003038,29.6940629 C36.6228624,29.6940629 35.671224,29.6940629 35.671224,29.6940629 C35.671224,29.6940629 35.671224,10.0240203 35.671224,2.91078629 Z" id="Path" fill="#EB4134"></path>
                <path d="M1.42847222,5.09791877 C0.846126302,4.76236979 0.422048611,4.2125546 0.247547743,3.56571321 C0.073046875,2.91887181 0.164355469,2.23160282 0.501182726,1.65146694 C0.501182726,1.65146694 0.503211806,1.64944556 0.503211806,1.64742419 C0.840039062,1.06728831 1.39397786,0.644820018 2.04328342,0.470981393 C2.69258898,0.297142767 3.38450521,0.388104839 3.96685113,0.723653814 L20.453125,10.2059444 L36.943457,0.721632434 C37.525803,0.386083459 38.2156901,0.295121388 38.8649957,0.468960013 C39.5143012,0.642798639 40.0662109,1.06526693 40.4030382,1.64540281 C40.4030382,1.64540281 40.4050673,1.64742419 40.4050673,1.64742419 C40.7418945,2.22756006 40.8332031,2.91887181 40.6587023,3.56571321 C40.4842014,4.2125546 40.0580946,4.76439117 39.4757487,5.09994015 L25.5258247,13.1227949 L20.453125,16.0416667 L15.3804253,13.1227949 L1.42847222,5.09791877 Z" id="Path" fill="#EB4134"></path>
            </g>
        </g>
    </g>
</svg>