<svg width="77px" height="77px" viewBox="0 0 77 77" version="1.1" xmlns="http://www.w3.org/2000/svg" xmlns:xlink="http://www.w3.org/1999/xlink">
    <title>Google+</title>
    <defs></defs>
    <g id="Page-1" stroke="none" stroke-width="1" fill="none" fill-rule="evenodd">
        <g id="gplus" transform="translate(-12.000000, -5.000000)">
            <path d="M50.22,5.13 C29.25,5.13 12.25,22.13 12.25,43.1 C12.25,64.06 29.25,81.06 50.22,81.06 C71.18,81.06 88.18,64.06 88.18,43.1 C88.18,22.13 71.18,5.13 50.22,5.13 L50.22,5.13 Z" id="Path" fill="#F24033"></path>
            <path d="M42.85,56.24 C35.77,56.24 30.03,50.43 30.03,43.34 C30.03,36.25 35.77,30.46 42.85,30.46 C46.17,30.46 49.2,31.72 51.47,33.79 C48.79,36.33 48.88,36.47 47.82,37.53 C46.51,36.43 45.07,35.64 42.85,35.64 C38.64,35.64 35.36,39.06 35.36,43.27 C35.36,47.48 38.64,51 42.85,51 C47,51 48.69,49 49.78,46 L43,46 L43,41 L55.16,41 C56.01,47 53.43,56.24 42.85,56.24 L42.85,56.24 Z" id="Path" fill="#FFFFFF"></path>
            <polygon id="Path" fill="#FFFFFF" points="70 44 66 44 66 49 63 49 63 44 58 44 58 41 63 41 63 37 66 37 66 41 70 41"></polygon>
        </g>
    </g>
</svg>