<svg width="77px" height="77px" viewBox="0 0 77 77" version="1.1" xmlns="http://www.w3.org/2000/svg" xmlns:xlink="http://www.w3.org/1999/xlink">
  <title>LinkedIn</title>
  <defs></defs>
  <g id="Symbols" stroke="none" stroke-width="1" fill="none" fill-rule="evenodd">
    <g id="Social-Icons" transform="translate(-190.000000, 0.000000)">
      <g id="LinkedIn" transform="translate(190.000000, 0.000000)">
        <path d="M76.493,38.095 C76.493,59.063 59.495,76.061 38.527,76.061 C17.559,76.061 0.561,59.063 0.561,38.095 C0.561,17.127 17.559,0.129 38.527,0.129 C59.495,0.129 76.493,17.127 76.493,38.095"
          id="Linkedin-Circle" fill="#187FB8"></path>
        <path d="M21.677,32.356 L28.867,32.356 L28.867,55.138 L21.677,55.138 L21.677,32.356 Z M48.512,32.137 C53.622,32.137 57.637,35.414 57.637,42.471 L57.637,55.138 L49.484,55.138 L49.484,43.349 C49.484,40.263 48.209,38.156 45.404,38.156 C43.259,38.156 42.066,39.578 41.511,40.948 C41.303,41.44 41.335,42.125 41.335,42.81 L41.335,55.138 L33.258,55.138 C33.258,55.138 33.362,34.255 33.258,32.356 L41.335,32.356 L41.335,35.932 C41.812,34.368 44.393,32.137 48.512,32.137 Z M25.139,21.602 C27.792,21.602 29.423,23.303 29.475,25.551 C29.475,27.758 27.792,29.506 25.089,29.506 L25.037,29.506 C22.435,29.506 20.747,27.765 20.747,25.557 C20.747,23.307 22.484,21.602 25.139,21.602 Z"
          id="Linkedin" fill="#FFFFFF"></path>
      </g>
    </g>
  </g>
</svg>