<?xml version="1.0" encoding="UTF-8"?>
<svg width="77px" height="77px" viewBox="0 0 77 77" version="1.1" xmlns="http://www.w3.org/2000/svg" xmlns:xlink="http://www.w3.org/1999/xlink">
    <title>phunt</title>
    <desc>Created with Sketch.</desc>
    <g id="Page-1" stroke="none" stroke-width="1" fill="none" fill-rule="evenodd">
        <g id="phunt">
            <path d="M77,38.5 C77,59.76355 59.76355,77 38.5,77 C17.23645,77 0,59.76355 0,38.5 C0,17.23645 17.23645,0 38.5,0 C59.76355,0 77,17.23645 77,38.5" id="Path" fill="#DA552F"></path>
            <path d="M43.633975,38.5 L32.725,38.5 L32.725,26.95 L43.633975,26.95 C46.8234194,26.95 49.408975,29.5355556 49.408975,32.725 C49.408975,35.9144444 46.8234194,38.5 43.633975,38.5 M43.633975,19.25 L25.025,19.25 L25.025,57.75 L32.725,57.75 L32.725,46.2 L43.633975,46.2 C51.076012,46.2 57.108975,40.167037 57.108975,32.725 C57.108975,25.282963 51.076012,19.25 43.633975,19.25" id="Shape" fill="#FFFFFF" fill-rule="nonzero"></path>
        </g>
    </g>
</svg>