<?xml version="1.0" encoding="UTF-8"?>
<svg width="77px" height="77px" viewBox="0 0 77 77" version="1.1" xmlns="http://www.w3.org/2000/svg" xmlns:xlink="http://www.w3.org/1999/xlink">
    <title>reddit</title>
    <desc>Created with Sketch.</desc>
    <g id="Page-1" stroke="none" stroke-width="1" fill="none" fill-rule="evenodd">
        <g id="reddit">
            <ellipse id="Oval" fill="#F05825" cx="38.5" cy="38.9222308" rx="38.5" ry="38.0769231"></ellipse>
            <path d="M53.1873222,34.0255385 C52.0768111,34.0255385 51.0595556,34.4105385 50.2587556,35.0485385 C47.4251556,33.3020769 43.8275444,32.2503077 39.9732667,32.0294615 L41.9855333,25.7975385 L47.5115667,27.0735385 C47.6570111,29.0450769 49.3398889,30.6053846 51.3863778,30.6053846 C53.5295444,30.6053846 55.2757333,28.8961538 55.2757333,26.796 C55.2757333,24.6975385 53.5295444,22.9874615 51.3863778,22.9874615 C49.8883,22.9874615 48.5852889,23.8234615 47.9367778,25.0444615 L41.5149778,23.5636923 C40.9776889,23.4393077 40.4335556,23.7422308 40.2658667,24.2592308 L37.7693556,31.9922308 C33.6164889,32.0912308 29.7117333,33.1472308 26.6685222,34.9952308 C25.8805556,34.3902308 24.8881111,34.0263846 23.8109667,34.0263846 C21.2468667,34.0263846 19.1618778,36.069 19.1618778,38.5829231 C19.1618778,40.1347692 19.9609667,41.5080769 21.175,42.3296923 C21.1236667,42.6901538 21.098,43.0548462 21.098,43.4220769 C21.098,46.5621538 22.9588333,49.4839231 26.3417,51.6458462 C29.5825444,53.7197692 33.8723,54.8620769 38.4204333,54.8620769 C42.9677111,54.8620769 47.2591778,53.7197692 50.5000222,51.6458462 C53.8811778,49.4839231 55.7437222,46.5621538 55.7437222,43.4220769 C55.7437222,43.0878462 55.7197667,42.7544615 55.6769889,42.4236154 C56.9740111,41.6155385 57.8355556,40.1956923 57.8355556,38.5829231 C57.8364111,36.0681538 55.7505667,34.0255385 53.1873222,34.0255385 Z M51.3863778,25.0563077 C52.3668444,25.0563077 53.1633667,25.8373077 53.1633667,26.7951538 C53.1633667,27.7555385 52.3659889,28.5356923 51.3863778,28.5356923 C50.4076222,28.5356923 49.6128111,27.7555385 49.6128111,26.7951538 C49.6119556,25.8373077 50.4076222,25.0563077 51.3863778,25.0563077 Z M30.1283889,41.3980769 C30.1283889,39.9833077 31.3415667,38.7953077 32.7848889,38.7953077 C34.2290667,38.7953077 35.4037444,39.9833077 35.4037444,41.3980769 C35.4037444,42.8162308 34.2299222,43.9644615 32.7848889,43.9644615 C31.3415667,43.9644615 30.1283889,42.8162308 30.1283889,41.3980769 Z M44.8644778,48.9423846 C43.5186889,50.2615385 41.4439667,50.9020769 38.5171111,50.9020769 C38.5119778,50.9020769 38.5051333,50.9003846 38.4974333,50.9003846 C38.4923,50.9003846 38.4846,50.9020769 38.4769,50.9020769 C35.5526111,50.9020769 33.4778889,50.2606923 32.1338111,48.9423846 C31.7197222,48.5370769 31.7197222,47.883 32.1338111,47.4793846 C32.5453333,47.0740769 33.2143778,47.0740769 33.6267556,47.4793846 C34.5533222,48.3881538 36.1420889,48.8315385 38.4769,48.8315385 C38.4854556,48.8315385 38.4931556,48.8332308 38.4974333,48.8332308 C38.5059889,48.8332308 38.5128333,48.8315385 38.5171111,48.8315385 C40.8553444,48.8315385 42.4424,48.389 43.3715333,47.4793846 C43.7847667,47.0732308 44.4546667,47.0740769 44.8644778,47.4793846 C45.2785667,47.883 45.2785667,48.5387692 44.8644778,48.9423846 Z M44.2527556,43.9644615 C42.8077222,43.9644615 41.5919778,42.8162308 41.5919778,41.3980769 C41.5919778,39.9816154 42.8077222,38.7953077 44.2527556,38.7953077 C45.6977889,38.7953077 46.8699,39.9816154 46.8699,41.3980769 C46.8690444,42.8162308 45.6977889,43.9644615 44.2527556,43.9644615 Z" id="Shape" fill="#FFFFFF" fill-rule="nonzero"></path>
        </g>
    </g>
</svg>