<?xml version="1.0" encoding="UTF-8"?>
<svg width="77px" height="77px" viewBox="0 0 77 77" version="1.1" xmlns="http://www.w3.org/2000/svg" xmlns:xlink="http://www.w3.org/1999/xlink">
    <title>telegram</title>
    <desc>Created with Sketch.</desc>
    <g id="Page-1" stroke="none" stroke-width="1" fill="none" fill-rule="evenodd">
        <g id="telegram">
            <path d="M38.0947368,0.106648199 C48.5462604,0.170637119 57.4620499,3.60470914 64.9060942,10.6221607 C72.3288089,17.6396122 76.3814404,26.3421053 76.8720222,36.5590028 C77.3839335,47.4797784 73.8858726,57.0354571 66.3138504,64.9487535 C58.8698061,72.734072 49.6767313,76.7440443 38.8839335,76.8506925 C28.8376731,76.9573407 20.0285319,73.5872576 12.6484765,66.7831025 C3.94598338,58.7418283 -0.234626039,48.6742382 0.213296399,36.8362881 C0.575900277,26.9180055 4.39390582,18.3861496 11.4113573,11.3900277 C18.8127424,3.98864266 27.8565097,0.298614958 38.0947368,0.106648199 Z" id="Path" fill="#0087CB"></path>
            <path d="M26.7473684,43.6617729 C24.6570637,43.0218837 22.5454294,42.3606648 20.4551247,41.7207756 C19.4313019,41.400831 18.4074792,41.0808864 17.3836565,40.7609418 C16.999723,40.632964 16.6371191,40.5049861 16.3171745,40.2703601 C15.7199446,39.8224377 15.6772853,39.267867 16.1891967,38.7132964 C16.5304709,38.3293629 16.9570637,38.0734072 17.4263158,37.8814404 C18.6634349,37.3908587 19.900554,36.900277 21.1376731,36.4096953 C29.6695291,33.1249307 38.201385,29.8188366 46.7545706,26.534072 C49.4634349,25.4889197 52.1509695,24.4437673 54.8598338,23.398615 C55.2224377,23.2493075 55.6063712,23.1639889 56.0116343,23.2279778 C56.8221607,23.3559557 57.4407202,24.0171745 57.5260388,24.8703601 C57.5686981,25.3396122 57.5473684,25.8088643 57.4620499,26.2781163 C56.4168975,31.1839335 55.3717452,36.1110803 54.3265928,41.0168975 C53.4734072,45.0695291 52.598892,49.1221607 51.7457064,53.1961219 C51.5537396,54.1132964 51.3617729,55.0304709 51.1698061,55.9476454 C51.0844875,56.3955679 50.9565097,56.8221607 50.7432133,57.2274238 C50.3166205,58.0166205 49.634072,58.3152355 48.7595568,58.1445983 C48.2263158,58.0379501 47.7570637,57.8033241 47.3304709,57.4833795 C44.3869806,55.3077562 41.4434903,53.1108033 38.4786704,50.9351801 C38.3506925,50.8285319 38.201385,50.7432133 38.0734072,50.6578947 C37.5614958,50.5085873 37.198892,50.1246537 36.7936288,49.8260388 C35.3858726,48.8022161 33.9781163,47.7357341 32.5703601,46.7119114 C32.4637119,46.6265928 32.3570637,46.5412742 32.2717452,46.434626 C32.1437673,46.2213296 32.2717452,46.0933518 32.399723,45.965374 C34.3193906,44.2590028 36.2177285,42.5099723 38.1373961,40.8036011 C39.5238227,39.5451524 40.9315789,38.2867036 42.3180055,37.0282548 C43.7044321,35.7698061 45.0908587,34.532687 46.4772853,33.2955679 C47.565097,32.3144044 48.6529086,31.3545706 49.7193906,30.3734072 C49.8047091,30.2880886 49.8900277,30.2027701 49.9753463,30.1174515 C50.0393352,30.032133 50.1246537,29.9468144 50.0819945,29.8401662 C50.0393352,29.7121884 49.9113573,29.7121884 49.8047091,29.7121884 C49.4207756,29.6695291 49.100831,29.8188366 48.7808864,30.0108033 C47.6077562,30.7146814 46.4772853,31.4612188 45.3254848,32.1864266 C41.8274238,34.3833795 38.3080332,36.601662 34.8099723,38.798615 C32.399723,40.3130194 29.9894737,41.8274238 27.5792244,43.3631579 C27.3019391,43.5124654 27.1099723,43.7897507 26.7473684,43.6617729 Z" id="Path" fill="#FCFDFE"></path>
            <path d="M26.7473684,43.8750693 C27.3232687,43.6404432 27.8138504,43.2565097 28.3470914,42.9365651 C29.8828255,41.9767313 31.4185596,41.0168975 32.9542936,40.0357341 C34.0421053,39.3531856 35.1085873,38.6493075 36.1963989,37.966759 C37.9880886,36.8362881 39.801108,35.7058172 41.6141274,34.5753463 C42.8725762,33.7861496 44.1310249,32.9756233 45.4108033,32.165097 C46.5199446,31.4612188 47.6290859,30.7573407 48.7382271,30.0534626 C49.100831,29.8401662 49.4634349,29.7121884 49.9113573,29.7548476 C50.0393352,29.7761773 50.167313,29.7761773 50.2099723,29.9041551 C50.2739612,30.032133 50.2313019,30.1601108 50.1246537,30.2880886 C49.8686981,30.5440443 49.634072,30.8213296 49.3354571,31.0559557 C48.8022161,31.4825485 48.332964,31.9731302 47.8210526,32.4210526 C46.9891967,33.1249307 46.2213296,33.8927978 45.3894737,34.5966759 C45.0481994,34.8952909 44.7282548,35.2152355 44.3869806,35.5138504 C43.8963989,35.9191136 43.4271468,36.4096953 42.9578947,36.8362881 C42.232687,37.4975069 41.4861496,38.1373961 40.7609418,38.7772853 C40.4409972,39.0759003 40.099723,39.3745152 39.801108,39.6731302 C39.0119114,40.4196676 38.1800554,41.1235457 37.3908587,41.8700831 C36.4310249,42.7445983 35.4498615,43.5977839 34.5113573,44.4936288 C33.8288089,45.133518 33.1036011,45.7307479 32.399723,46.3493075 C32.2930748,46.434626 32.2930748,46.5199446 32.3570637,46.6265928 C32.2077562,49.0368421 32.0371191,51.4470914 31.8878116,53.8573407 C31.8451524,54.4972299 31.7598338,55.1157895 31.7811634,55.7556787 C31.7811634,55.9476454 31.7811634,56.1182825 31.631856,56.26759 C31.5038781,56.3102493 31.3545706,56.3102493 31.2265928,56.3102493 C30.8426593,56.2889197 30.565374,56.0969529 30.4587258,55.734349 C30.3520776,55.3504155 30.2240997,54.9878116 30.1174515,54.6038781 C29.0722992,51.1698061 28.0271468,47.7144044 26.9819945,44.2803324 C26.8753463,44.1310249 26.8113573,44.0030471 26.7473684,43.8750693 Z" id="Path" fill="#CCD9E9"></path>
            <path d="M31.567867,56.032964 C31.5038781,55.201108 31.6531856,54.3692521 31.6745152,53.5587258 C31.7171745,52.6628809 31.8024931,51.767036 31.8451524,50.8711911 C31.9091413,49.9540166 31.9731302,49.0368421 32.0371191,48.1409972 C32.0584488,47.6717452 32.101108,47.2024931 32.101108,46.7545706 C32.101108,46.6052632 32.1437673,46.498615 32.2930748,46.4132964 C34.0207756,47.6930748 35.7484765,48.9515235 37.4548476,50.2313019 C37.6468144,50.3806094 37.8601108,50.4872576 38.0094183,50.6792244 C36.4096953,52.2362881 34.7886427,53.7933518 33.1889197,55.3504155 C32.7623269,55.7770083 32.2504155,56.1182825 31.567867,56.032964 Z" id="Path" fill="#B1C8DB"></path>
        </g>
    </g>
</svg>