<?xml version="1.0" encoding="UTF-8"?>
<svg width="77px" height="77px" viewBox="0 0 77 77" version="1.1" xmlns="http://www.w3.org/2000/svg" xmlns:xlink="http://www.w3.org/1999/xlink">
    <!-- Generator: Sketch 52.3 (67297) - http://www.bohemiancoding.com/sketch -->
    <title>whatsapp2</title>
    <desc>Created with Sketch.</desc>
    <g id="Page-1" stroke="none" stroke-width="1" fill="none" fill-rule="evenodd">
        <g id="whatsapp2">
            <path d="M38.5,77 C59.7629639,77 77,59.7629639 77,38.5 C77,17.2370361 59.7629639,0 38.5,0 C17.2370361,0 0,17.2370361 0,38.5 C0,59.7629639 17.2370361,77 38.5,77 Z" id="Path" fill="#57BB63"></path>
            <path d="M38.5914523,59.3170093 C34.9205662,59.3170093 31.4719138,58.3787938 28.47152,56.7321785 L16.8807693,60.4153846 L20.6592185,49.2695754 C18.7534093,46.1388738 17.6555077,42.4675138 17.6555077,38.54312 C17.6555077,27.0698831 27.0286585,17.7692307 38.5919262,17.7692307 C50.1537723,17.7692307 59.5269231,27.0698831 59.5269231,38.54312 C59.5269231,50.0163569 50.1542462,59.3170093 38.5914523,59.3170093 Z M38.5914523,21.0776246 C28.8851877,21.0776246 20.9899631,28.9126707 20.9899631,38.54312 C20.9899631,42.3646893 22.2357046,45.9038462 24.3424246,48.7834093 L22.1437785,55.2694154 L28.9074585,53.1195754 C31.68704,54.9443569 35.0162831,56.0086154 38.5914523,56.0086154 C48.2962954,56.0086154 56.1929415,48.1740431 56.1929415,38.5435938 C56.1929415,28.9131446 48.2962954,21.0776246 38.5914523,21.0776246 Z M49.16296,43.3275446 C49.0340738,43.1157354 48.6919569,42.9877969 48.1797293,42.7333415 C47.66608,42.4788862 45.1423754,41.2464123 44.6727938,41.0772493 C44.2017907,40.9076123 43.8592,40.8218462 43.5175569,41.3317046 C43.1759138,41.8415631 42.1922093,42.9877969 41.8922646,43.3275446 C41.5927938,43.6677662 41.2937969,43.7104123 40.7806215,43.4554831 C40.26792,43.2010277 38.6141969,42.6632123 36.6534215,40.9284615 C35.1281107,39.5789477 34.0979693,37.9129046 33.7989723,37.4025723 C33.4995015,36.8931877 33.7672246,36.6178831 34.0240493,36.3643754 C34.2548123,36.1359815 34.5372246,35.7696985 34.7940493,35.4725969 C35.0508738,35.1750215 35.1361662,34.9632123 35.3067507,34.6229907 C35.4782831,34.2832431 35.3925169,33.9861415 35.2641046,33.7307385 C35.1356923,33.4762831 34.1088677,30.9705846 33.6814585,29.9508677 C33.2540493,28.9320985 32.8271138,29.1017354 32.5271693,29.1017354 C32.2276985,29.1017354 31.8855815,29.0590893 31.5434646,29.0590893 C31.2013477,29.0590893 30.6450523,29.1865538 30.1745231,29.6959385 C29.7044677,30.2057969 28.37912,31.4377969 28.37912,33.9430215 C28.37912,36.44872 30.2171693,38.8696 30.4744677,39.2088738 C30.7308185,39.5481477 34.0235754,44.85712 39.2401477,46.89608 C44.4586154,48.9345662 44.4586154,48.2545969 45.3996738,48.1697785 C46.3393107,48.08496 48.4346585,46.9382523 48.8634893,45.7493723 C49.2904246,44.5595446 49.2904246,43.5398277 49.16296,43.3275446 Z" id="Shape" fill="#FFFFFF" fill-rule="nonzero"></path>
        </g>
    </g>
</svg>